<svg width="122" height="53" viewBox="0 0 122 53" fill="none" xmlns="http://www.w3.org/2000/svg">
<g clip-path="url(#clip0_0_205)">
<path d="M106.683 1.95703C110.791 1.95703 114.312 3.42471 117.252 6.34843C120.193 9.27842 121.659 12.7924 121.659 16.9039C121.659 21.0216 120.193 24.5303 117.252 27.4343C116.853 27.8278 116.444 28.1945 116.024 28.5344C109.105 24.9596 101.796 23.2504 101.645 16.9093C102.918 19.4547 103.652 20.857 106.392 22.2272C106.61 21.8999 106.843 21.5064 107.076 21.1978C108.252 19.6362 108.499 20.2381 111.137 19.6595C113.354 19.1738 113.858 18.1909 114.016 15.7171C112.001 13.9954 112.581 15.184 111.339 12.3801C110.576 10.6584 109.933 10.5171 107.908 10.0851L108.115 6.68114C103.567 7.7544 100.394 11.577 98.7996 15.8092C96.8104 21.0932 97.419 24.6599 98.4163 29.3313C97.6084 28.7893 96.8382 28.1579 96.1066 27.4352C93.1847 24.5177 91.7179 21.01 91.7179 16.9048C91.7179 12.8058 93.1847 9.29094 96.1066 6.34933C99.0473 3.4256 102.568 1.95793 106.682 1.95793L106.683 1.95703Z" fill="#3D4A39"/>
<path d="M109.978 9.22297L110.238 8.59869C111.335 9.05393 112.339 9.73455 113.247 10.6397L113.247 10.6406C114.165 11.5528 114.853 12.5563 115.312 13.651C115.772 14.7475 116.001 15.9326 116.001 17.2044C116.001 18.4878 115.771 19.6783 115.31 20.7748C114.851 21.8686 114.163 22.8658 113.245 23.7647C112.331 24.6653 111.326 25.3397 110.233 25.7904C109.135 26.243 107.951 26.4684 106.683 26.4684C105.395 26.4684 104.2 26.2439 103.098 25.7922C101.998 25.3415 100.997 24.6653 100.094 23.7629L100.093 23.7638C99.1847 22.8587 98.5015 21.8579 98.0446 20.7614C97.5877 19.6657 97.3588 18.4798 97.3588 17.2044C97.3588 15.9389 97.5877 14.7583 98.0437 13.6618C98.4998 12.567 99.1829 11.56 100.091 10.6423C100.989 9.73545 101.987 9.05393 103.087 8.59869L103.347 9.22297C102.331 9.64332 101.406 10.2748 100.574 11.1155C99.7278 11.9705 99.0931 12.906 98.6703 13.9211C98.2493 14.9327 98.0384 16.0274 98.0384 17.2044C98.0384 18.3921 98.2493 19.4913 98.6712 20.502C99.0931 21.5135 99.7278 22.4419 100.573 23.2853V23.2862C101.412 24.1251 102.34 24.7521 103.355 25.1688C104.37 25.5847 105.479 25.7922 106.682 25.7922C107.864 25.7922 108.962 25.5847 109.975 25.1671C110.985 24.7503 111.917 24.1233 112.767 23.2853L112.768 23.2844C113.621 22.4499 114.258 21.5269 114.683 20.5172C115.107 19.5047 115.319 18.4011 115.319 17.2053C115.319 16.0211 115.108 14.9228 114.684 13.9104C114.259 12.8971 113.621 11.966 112.766 11.1182H112.765C111.919 10.2748 110.989 9.64243 109.977 9.22297H109.978ZM106.683 1.95703C108.781 1.95703 110.731 2.33267 112.536 3.08305C114.338 3.83254 115.99 4.95499 117.492 6.44771H117.492C118.993 7.94311 120.12 9.59145 120.872 11.3918C121.624 13.1931 122 15.1429 122 17.242C122 19.3447 121.623 21.2944 120.872 23.0921C120.121 24.888 118.994 26.5283 117.492 28.0121C115.996 29.4896 114.347 30.5977 112.544 31.3374C110.739 32.077 108.786 32.4473 106.683 32.4473V32.4464C104.571 32.4402 102.612 32.0672 100.808 31.3275C99.0042 30.5879 97.357 29.4833 95.8687 28.013L95.8678 28.0121C94.375 26.522 93.2538 24.8791 92.5052 23.0841C91.7556 21.2872 91.3795 19.3402 91.3795 17.2438C91.3795 15.15 91.7556 13.2038 92.5052 11.4026C93.2538 9.60397 94.375 7.95384 95.8678 6.45039L95.8687 6.4495C97.3705 4.95678 99.0222 3.83433 100.826 3.08484C102.63 2.33446 104.582 1.95882 106.684 1.95882L106.683 1.95703ZM112.275 3.70644C110.556 2.99183 108.693 2.63318 106.683 2.63318C104.67 2.63318 102.805 2.99093 101.085 3.70644C99.3642 4.42194 97.7852 5.49519 96.3472 6.92531C94.919 8.36436 93.8454 9.94205 93.1309 11.6601C92.4163 13.3765 92.0591 15.2368 92.0591 17.242C92.0591 19.2507 92.4172 21.1111 93.1309 22.8229C93.8454 24.5365 94.9181 26.1071 96.3472 27.5336C97.7727 28.9413 99.3454 29.9976 101.065 30.7024C102.788 31.4089 104.661 31.7649 106.683 31.7703V31.7685C108.7 31.7685 110.568 31.4161 112.286 30.7122C114.006 30.0074 115.581 28.9476 117.013 27.5327C118.451 26.1124 119.528 24.5455 120.246 22.8318C120.962 21.1191 121.32 19.2561 121.32 17.2411C121.32 15.2296 120.962 13.3657 120.246 11.6494C119.529 9.9331 118.451 8.3581 117.012 6.92441L117.013 6.92352C115.575 5.49341 113.996 4.42015 112.275 3.70465V3.70644Z" fill="#3D4A39"/>
<path d="M103.317 9.14964L103.348 9.22298C103.271 9.25518 103.194 9.28827 103.118 9.32225C101.176 11.0439 99.7224 13.3577 98.7996 15.8083C98.5033 16.5953 98.2645 17.3439 98.0769 18.0639C98.155 18.927 98.3534 19.74 98.6712 20.502C99.0931 21.5135 99.7277 22.4419 100.573 23.2853V23.2862C101.412 24.1251 102.34 24.7521 103.355 25.1689C104.37 25.5847 105.479 25.7922 106.682 25.7922C107.629 25.7922 108.521 25.659 109.36 25.3916C105.081 23.3416 101.746 21.1719 101.644 16.9084C102.917 19.4538 103.651 20.8562 106.391 22.2264C106.609 21.899 106.842 21.5055 107.075 21.1978C108.251 19.6362 108.498 20.2373 111.136 19.6595C113.353 19.1738 113.857 18.1909 114.015 15.7171C112 13.9954 112.58 15.184 111.338 12.3801C110.575 10.6585 109.933 10.5171 107.907 10.0852L108.114 6.68115C106.289 7.11224 104.686 7.98605 103.317 9.15053L103.317 9.14964Z" fill="#DDD5C1"/>
<path d="M110.22 25.7965C109.125 26.2455 107.946 26.4691 106.683 26.4691C105.395 26.4691 104.2 26.2437 103.098 25.793C101.998 25.3422 100.997 24.666 100.094 23.7636L100.093 23.7645C99.1847 22.8594 98.5015 21.8586 98.0446 20.7621C97.9136 20.4481 97.8014 20.1271 97.708 19.7988C97.1748 23.0892 97.682 25.886 98.3983 29.2488C99.2439 29.8364 100.133 30.3221 101.064 30.704C102.787 31.4105 104.66 31.7665 106.682 31.7719V31.771C108.699 31.771 110.567 31.4186 112.285 30.7147C113.589 30.1799 114.811 29.4411 115.95 28.4976C114.013 27.5012 112.047 26.648 110.219 25.7974L110.22 25.7965Z" fill="#AE7B3C"/>
<path d="M75.3491 2.0124C79.4442 2.0124 82.972 3.46129 85.937 6.36624L81.7108 10.577C79.9191 8.81684 77.8087 7.93319 75.3868 7.93319C72.9083 7.93319 70.7979 8.81684 69.0565 10.577C67.3025 12.3246 66.4219 14.4335 66.4219 16.9029C66.4219 19.366 67.3025 21.475 69.0565 23.2226C70.7854 24.9702 72.8958 25.8476 75.3868 25.8476C77.2162 25.8476 78.8769 25.3378 80.3751 24.3173C81.7548 23.3845 82.7853 22.178 83.472 20.7094H75.0564V15.0802H90.2018C90.5887 20.0932 89.1596 24.2118 85.9002 27.4333C82.9594 30.3383 79.4388 31.7872 75.3311 31.7872C71.1857 31.7872 67.6651 30.3383 64.7746 27.4333C61.8528 24.5409 60.386 21.0332 60.386 16.9029C60.386 12.804 61.8528 9.28907 64.7746 6.34746C67.6777 3.42373 71.1983 1.95605 75.3311 1.95605L75.35 2.0124H75.3491Z" fill="#3D4A39"/>
<path d="M75.5933 1.67622C77.5914 1.70394 79.4595 2.07422 81.1956 2.78882C83.0016 3.53116 84.6605 4.64377 86.1749 6.12665L86.419 6.36545L81.7135 11.0538L81.4738 10.8186C80.6094 9.96979 79.6686 9.3321 78.6534 8.90727C77.6417 8.48423 76.5529 8.27226 75.3868 8.27226C74.1929 8.27226 73.0897 8.48423 72.0771 8.90727C71.0628 9.33121 70.1364 9.96711 69.298 10.8141L69.2971 10.8168C68.4506 11.6602 67.8159 12.5885 67.394 13.601C66.973 14.6125 66.7621 15.7135 66.7621 16.903C66.7621 18.0908 66.973 19.1899 67.3949 20.2006C67.8168 21.2121 68.4515 22.1405 69.2971 22.983L69.298 22.9857C70.1301 23.8273 71.0538 24.4587 72.0672 24.8791C73.0789 25.2986 74.1857 25.5087 75.3868 25.5087C76.2692 25.5087 77.1085 25.3862 77.9056 25.142C78.7036 24.897 79.4631 24.5294 80.1839 24.0384H80.1848C80.8464 23.5912 81.4254 23.0769 81.9218 22.4991C82.3033 22.0546 82.6363 21.5708 82.9209 21.0485H74.7162V14.7422H90.516L90.5402 15.0552C90.7368 17.606 90.4702 19.9341 89.7377 22.0385C89.0034 24.1475 87.805 26.0257 86.139 27.6731C84.6372 29.1569 82.9846 30.2695 81.1821 31.0118C79.3778 31.7551 77.4281 32.1262 75.3311 32.1262C73.2145 32.1262 71.254 31.7551 69.4515 31.011C67.6499 30.2677 66.0107 29.1551 64.535 27.6722C63.0422 26.1938 61.921 24.558 61.1714 22.7621C60.4219 20.9653 60.0458 19.012 60.0458 16.903C60.0458 14.8093 60.4219 12.8631 61.1714 11.0618C61.9201 9.26323 63.0413 7.6131 64.5341 6.10965C66.0179 4.61515 67.6615 3.49181 69.464 2.74232C71.2656 1.99283 73.2216 1.61719 75.3311 1.61719H75.5744L75.5933 1.67532V1.67622ZM80.9388 3.41221C79.2171 2.70475 77.3545 2.35058 75.35 2.35058H75.1067L75.0888 2.29602C73.1606 2.32375 71.3725 2.6806 69.7243 3.36659C68.0053 4.0821 66.4353 5.15535 65.0143 6.58546C63.5853 8.02452 62.5125 9.6022 61.7971 11.3212C61.0826 13.0375 60.7253 14.8978 60.7253 16.903C60.7253 18.9243 61.0835 20.7909 61.7971 22.5027C62.5116 24.2164 63.5844 25.7797 65.0125 27.1946L65.0134 27.1955C66.4263 28.6158 67.9919 29.6792 69.7073 30.3867C71.4245 31.095 73.2997 31.4492 75.3302 31.4492C77.341 31.4492 79.2054 31.0959 80.9245 30.3876C82.6435 29.6792 84.2225 28.6149 85.6614 27.1937C87.2539 25.6187 88.3993 23.8273 89.0986 21.8185C89.7691 19.8911 90.0312 17.7571 89.8849 15.4183H75.3958V20.3705H84.0043L83.779 20.8517C83.4226 21.6137 82.9756 22.3095 82.4361 22.9374C81.9029 23.559 81.279 24.1117 80.5654 24.5956V24.5965C79.7889 25.125 78.9685 25.5221 78.104 25.7878C77.2387 26.0534 76.3329 26.1858 75.3868 26.1858C74.0978 26.1858 72.9048 25.9577 71.8078 25.5034C70.7109 25.049 69.7145 24.3675 68.8168 23.4615L68.8159 23.4624C67.9075 22.5573 67.2244 21.5565 66.7675 20.46C66.3105 19.3643 66.0816 18.1784 66.0816 16.903C66.0816 15.625 66.3105 14.4381 66.7675 13.3416C67.2244 12.2442 67.9075 11.2434 68.8159 10.3383L68.8168 10.3392C69.7199 9.4269 70.719 8.74092 71.8141 8.28389C72.911 7.82507 74.1022 7.59611 75.3868 7.59611C76.6426 7.59611 77.8195 7.82597 78.9155 8.28389C79.9137 8.70156 80.8446 9.30885 81.7045 10.1057L85.4532 6.37081C84.069 5.06681 82.5645 4.0812 80.9379 3.41221H80.9388Z" fill="#3D4A39"/>
<path d="M51.8825 18.4339V2.12402H57.825V32.1743L40.045 15.2982V31.6081H34.1205V1.57666L51.8825 18.4339Z" fill="#3D4A39"/>
<path d="M51.2029 16.8564V1.44711H58.5045V33.7512L40.7245 16.876V32.2853H33.4409V0L51.202 16.8564H51.2029ZM52.562 2.80119V20.0108L34.8009 3.15447V30.9312H39.3664V13.7216L57.1463 30.5967V2.80119H52.562Z" fill="#3D4A39"/>
<path d="M24.538 2.19287H30.4625V31.5705H24.538V2.19287Z" fill="#3D4A39"/>
<path d="M24.538 1.854H30.8018V31.9087H24.1978V1.854H24.5371H24.538ZM30.1232 2.53105H24.8782V31.2317H30.1232V2.53105Z" fill="#3D4A39"/>
<path d="M10.5291 16.1693C11.6027 16.1693 12.5201 15.7651 13.2885 14.9503C14.0443 14.1355 14.4249 13.1651 14.4249 12.0328C14.4249 10.9632 14.0317 10.0241 13.2508 9.20927C12.4456 8.43206 11.2284 8.04658 9.59282 8.04658H6.26519V16.1514H8.54974V16.1702H10.5291V16.1693ZM0.340637 2.19287H9.96086C13.082 2.19287 15.6547 3.18832 17.6771 5.18457C18.67 6.16749 19.3692 7.09407 19.7813 7.97145C20.2804 9.04113 20.5308 10.3353 20.5308 11.8531V12.6178C20.5308 14.5961 19.9123 16.4618 18.6709 18.2157C17.7777 19.4535 16.5982 20.355 15.1377 20.9274L21.9985 31.5705H14.7571L6.28494 18.577V31.5705H0.341535V2.19287H0.340637Z" fill="#3D4A39"/>
<path d="M10.5291 15.8314C11.0192 15.8314 11.4716 15.7401 11.8863 15.5568C12.3029 15.3725 12.6871 15.0944 13.0389 14.7223C13.3881 14.3449 13.6502 13.9344 13.8235 13.4899C13.9967 13.0445 14.0847 12.5597 14.0847 12.0338C14.0847 11.5428 13.9949 11.084 13.8172 10.6556C13.6377 10.2254 13.3684 9.82203 13.0093 9.44639C12.6458 9.09668 12.1862 8.83374 11.6305 8.65755C11.0569 8.47509 10.3783 8.38476 9.59193 8.38476H6.60451V15.8126H8.88906V15.8314H10.5282H10.5291ZM12.1601 16.1748C11.6565 16.3975 11.1135 16.5075 10.5291 16.5075H8.21043V16.4887H5.92588V7.70682H9.59282C10.4429 7.70682 11.1898 7.80878 11.8352 8.01449C12.4959 8.22467 13.0461 8.54128 13.4869 8.967L13.4958 8.97594C13.9151 9.4133 14.231 9.88642 14.4429 10.3953C14.6565 10.9078 14.7633 11.4534 14.7633 12.0329C14.7633 12.6393 14.6601 13.2055 14.4546 13.7323C14.249 14.259 13.9429 14.7411 13.5371 15.1794L13.5344 15.182C13.1188 15.623 12.661 15.9539 12.1592 16.1748H12.1601ZM0.34064 1.854H9.96086C11.5623 1.854 13.0264 2.11069 14.3531 2.62496C15.6834 3.14012 16.8711 3.91376 17.9159 4.94498C18.4222 5.44672 18.8558 5.93595 19.2175 6.41534C19.582 6.8983 19.8719 7.36874 20.0874 7.82846L20.0883 7.82935C20.3495 8.38923 20.5452 9.00635 20.6753 9.67982C20.8046 10.3497 20.8692 11.0742 20.8692 11.8523V12.617C20.8692 13.6419 20.7085 14.6383 20.3881 15.606C20.0676 16.5701 19.5874 17.5047 18.9473 18.4099L18.9446 18.4125C18.4797 19.0574 17.9402 19.6146 17.3262 20.0859C16.8145 20.4786 16.2517 20.8113 15.6395 21.0832L22.6179 31.9087H14.5721L6.62336 19.7165V31.9087H0.000427246V1.854H0.339743H0.34064ZM9.96086 2.53105H0.679956V31.2317H5.94383V17.4359L14.9384 31.2317H21.3764L14.6278 20.7639L15.0129 20.6127C15.7149 20.3372 16.3486 19.984 16.9123 19.552C17.4734 19.1209 17.968 18.6111 18.3935 18.0217H18.3926C18.994 17.1729 19.4437 16.2973 19.7436 15.3949C20.0416 14.4969 20.1906 13.5704 20.1906 12.6179V11.8532C20.1906 11.1135 20.1305 10.432 20.0102 9.80772C19.8908 9.18791 19.7112 8.62266 19.4734 8.11287H19.4743C19.2786 7.69609 19.0129 7.265 18.6771 6.82049C18.3378 6.37062 17.9249 5.90554 17.4393 5.42436C16.4617 4.45933 15.3513 3.73578 14.1098 3.2546C12.8648 2.77253 11.4824 2.53105 9.96176 2.53105H9.96086Z" fill="#3D4A39"/>
<path d="M6.3406 51.2094C6.96447 51.2094 7.52102 51.1048 8.01114 50.8955C8.50126 50.6862 8.91868 50.3928 9.25799 50.0163C9.59821 49.6398 9.85673 49.189 10.0354 48.6658C10.214 48.1426 10.302 47.5666 10.302 46.9379V37.8179H12.3298V46.9379C12.3298 47.8036 12.1933 48.6059 11.9169 49.3464C11.6404 50.0861 11.2445 50.7247 10.7293 51.2658C10.214 51.8069 9.58384 52.2326 8.84148 52.5394C8.09911 52.8461 7.26519 53 6.3406 53C5.41601 53 4.58208 52.8461 3.83972 52.5394C3.09735 52.2326 2.4663 51.8069 1.94835 51.2658C1.4295 50.7247 1.03453 50.0861 0.757152 49.3464C0.480672 48.6068 0.340637 47.8036 0.340637 46.9379V37.8179H2.36845V46.9271C2.36845 47.555 2.45912 48.131 2.63775 48.6551C2.81638 49.1783 3.07581 49.629 3.41512 50.0056C3.75534 50.3821 4.17185 50.6755 4.66556 50.8883C5.15928 51.1012 5.71672 51.2094 6.3397 51.2094H6.3406Z" fill="#AE7B3C"/>
<path d="M23.397 44.3923H24.1645C24.4311 44.3923 24.6448 44.3574 24.8055 44.2912C24.9661 44.225 25.1134 44.1132 25.2471 43.9522L30.2596 38.298C30.3997 38.1164 30.5469 37.9912 30.7013 37.9215C30.8557 37.8517 31.0442 37.8168 31.2686 37.8168H32.9921L27.2543 44.2769C27.1142 44.4442 26.9814 44.5801 26.8512 44.6883C26.722 44.7965 26.5819 44.8869 26.4347 44.9566C26.6241 45.0192 26.7956 45.1105 26.95 45.2321C27.1044 45.3546 27.2543 45.5147 27.4015 45.7106L33.3916 52.82H31.6259C31.493 52.82 31.3808 52.8093 31.2857 52.7923C31.1914 52.7744 31.107 52.7467 31.037 52.7082C30.967 52.6698 30.9078 52.6241 30.8548 52.5723C30.8018 52.5195 30.7498 52.4605 30.7004 52.3907L25.5092 46.4333C25.3692 46.2589 25.2184 46.1327 25.0577 46.0594C24.897 45.9861 24.6511 45.9512 24.3225 45.9512H23.3979V52.82H21.3701V37.8159H23.3979V44.3914L23.397 44.3923Z" fill="#AE7B3C"/>
<path d="M44.8457 45.0838C45.4345 45.0838 45.9561 45.0105 46.4076 44.8674C46.8591 44.7243 47.2379 44.5221 47.5422 44.2601C47.8466 43.998 48.0746 43.6877 48.229 43.3246C48.3834 42.9614 48.4606 42.5599 48.4606 42.1207C48.4606 41.2272 48.1661 40.5538 47.5782 40.1003C46.9893 39.6469 46.1069 39.4197 44.9301 39.4197H42.7021V45.0847H44.8457V45.0838ZM51.8025 52.822H49.9947C49.623 52.822 49.3501 52.6789 49.1751 52.3927L45.2658 47.0318C45.1464 46.8645 45.0207 46.742 44.8843 46.6686C44.7478 46.5953 44.5342 46.5604 44.2469 46.5604H42.7021V52.822H40.6743V37.8179H44.9301C45.8825 37.8179 46.7065 37.9118 47.3995 38.1041C48.0934 38.2964 48.6679 38.5754 49.1194 38.9385C49.571 39.3016 49.904 39.7381 50.1212 40.2506C50.3385 40.764 50.4471 41.3399 50.4471 41.9749C50.4471 42.5053 50.3627 43.0008 50.1948 43.4614C50.027 43.922 49.7846 44.3343 49.4659 44.7001C49.1473 45.0668 48.7586 45.3807 48.2999 45.6392C47.8412 45.8977 47.3187 46.0927 46.7371 46.2259C46.9965 46.3726 47.2209 46.5855 47.4094 46.8645L51.8025 52.822Z" fill="#AE7B3C"/>
<path d="M66.5144 47.2509L64.1499 41.1467C64.0799 40.9652 64.0063 40.7523 63.9291 40.5117C63.8519 40.2712 63.7783 40.0163 63.7083 39.7435C63.5611 40.3087 63.4102 40.7801 63.2567 41.1566L60.8923 47.25H66.5144V47.2509ZM70.7603 52.8211H69.184C69.0018 52.8211 68.8546 52.7755 68.7424 52.6851C68.6301 52.5948 68.5458 52.4794 68.4901 52.3399L67.0817 48.7168H60.3241L58.9157 52.3399C58.8735 52.4651 58.7927 52.5769 58.6742 52.6753C58.5548 52.7728 58.4076 52.822 58.2325 52.822H56.6562L62.6778 37.8179H64.7379L70.7594 52.822L70.7603 52.8211Z" fill="#AE7B3C"/>
<path d="M79.4613 52.8219H77.4227V37.8169H79.4613V52.8219Z" fill="#AE7B3C"/>
<path d="M100.889 37.8169V52.821H99.8696C99.708 52.821 99.5752 52.7933 99.4665 52.7369C99.3579 52.6815 99.2493 52.5867 99.1443 52.4543L90.4325 41.1458C90.4468 41.3202 90.4567 41.491 90.4639 41.6591C90.4711 41.8264 90.4747 41.9838 90.4747 42.1305V52.821H88.6883V37.8169H89.7395C89.8302 37.8169 89.9074 37.8205 89.9711 37.8312C90.0339 37.8419 90.0905 37.8589 90.1389 37.884C90.1883 37.9081 90.2368 37.943 90.2862 37.9886C90.3355 38.0342 90.3876 38.0933 90.4441 38.163L99.1559 49.4608C99.1416 49.2793 99.1317 49.1013 99.1209 48.9305C99.1102 48.7596 99.103 48.5986 99.103 48.4457V37.8178H100.889V37.8169Z" fill="#AE7B3C"/>
<path d="M117.41 47.2509L115.045 41.1467C114.975 40.9652 114.902 40.7523 114.825 40.5117C114.747 40.2712 114.674 40.0163 114.604 39.7435C114.457 40.3087 114.306 40.7801 114.152 41.1566L111.788 47.25H117.41V47.2509ZM121.656 52.8211H120.079C119.897 52.8211 119.75 52.7755 119.638 52.6851C119.526 52.5948 119.441 52.4794 119.386 52.3399L117.977 48.7168H111.22L109.811 52.3399C109.769 52.4651 109.688 52.5769 109.57 52.6753C109.45 52.7728 109.303 52.822 109.128 52.822H107.552L113.573 37.8179H115.633L121.655 52.822L121.656 52.8211Z" fill="#AE7B3C"/>
</g>
<defs>
<clipPath id="clip0_0_205">
<rect width="122" height="53" fill="white"/>
</clipPath>
</defs>
</svg>
